<svg xmlns="http://www.w3.org/2000/svg" xmlns:xlink="http://www.w3.org/1999/xlink" style="vertical-align:-24.255ex" width="46.556ex" height="49.634ex" viewBox="0 -10927.3 20044.7 21370.2"><defs><path id="d" stroke-width="1" d="M712 899l6-6v-28q0-11-14-19-77-53-127-136t-67-185q0-1-1-4-4-28-5-172v-15-94q0-242-1-244-1-4-9-5t-50-1q-52 0-54 1-3 1-4 4-2 10-2 235v82q0 50-1 70 0 99 9 153t42 121q76 150 230 236l13 7h35z"/><path id="a" stroke-width="1" d="M366 683q1 0 72 5t73 6q12 0 12-8 0-7-73-302T375 83t-1-15q0-42 28-42 9 1 20 9 21 20 41 96 6 20 10 21 2 1 10 1h8q15 0 15-8 0-5-3-16-13-50-30-81T445 8 417-8q-8-2-24-2-34 0-57 15t-30 31l-6 15q-1 1-4-1l-4-4q-59-56-120-56-55 0-97 40T33 157q0 48 20 98t48 86q47 57 94 79t85 22q56 0 84-42 5-6 5-4 1 4 27 109t28 111q0 13-7 16t-39 5h-21q-6 6-6 8t2 19q5 19 13 19zm-14-357q-23 79-75 79-35 0-67-31t-50-81q-29-79-41-164v-11q0-8-1-12 0-45 18-62t43-18q54 0 111 72l8 11 54 217z"/><path id="c" stroke-width="1" d="M21 287q1 6 3 16t12 38 20 47 32 37 44 17 43-7 30-18 16-22 8-19l2-7q0-2 1-2l11 11q60 64 141 64 17 0 31-2t26-7 19-10 15-12 10-13 8-13 4-12 3-9 2-7l8 10q63 75 149 75 54 0 87-27t34-79q0-51-38-158T704 50q1-14 5-19t15-5q28 0 52 30t39 82q3 11 6 13t16 2q20 0 20-8 0-1-4-15-8-29-22-57t-46-56-69-27q-47 0-68 27t-21 56q0 19 36 120t37 152q0 59-44 59h-5q-86 0-145-101l-7-12-33-134Q433 26 428 16q-13-27-43-27-13 0-21 7T353 8t-3 10q0 11 34 143l36 146q3 15 3 38 0 59-44 59h-5q-86 0-145-101l-7-12-33-134Q156 26 151 16q-13-27-43-27-13 0-21 6T76 7t-2 10q0 13 38 164 39 154 39 161 3 15 3 27 0 36-25 36-22 0-37-28t-23-61-12-36q-2-2-16-2H27q-6 6-6 9z"/><path id="h" stroke-width="1" d="M33 157q0 101 76 192t171 92q51 0 90-49 16 30 46 30 13 0 23-8t10-20q0-13-37-160T374 68q0-25 7-33t21-9q9 1 20 9 21 20 41 96 6 20 10 21 2 1 10 1h4q19 0 19-9 0-6-5-27t-20-54-32-50Q436 0 417-8q-8-2-24-2-34 0-57 15t-30 31l-6 15q-1 1-4-1l-4-4q-59-56-120-56-55 0-97 40T33 157zm318 171q0 6-5 22t-23 35-46 20q-35 0-67-31t-50-81q-29-79-41-164v-11q0-8-1-12 0-45 18-62t43-18q38 0 75 33t44 51q2 4 27 107t26 111z"/><path id="i" stroke-width="1" d="M21 287q1 6 3 16t12 38 20 47 33 37 46 17q36 0 60-18t30-34 6-21q0-2 1-2l11 11q61 64 139 64 54 0 87-27t34-79-38-157-38-127q0-26 17-26 6 0 9 1 29 5 52 38t35 80q2 8 20 8 20 0 20-8 0-1-4-15-8-29-22-57t-46-56-69-27q-47 0-68 27t-21 56q0 19 36 120t37 152q0 59-44 59h-5q-86 0-145-101l-7-12-33-134Q156 26 151 16q-13-27-43-27-13 0-21 6T76 7t-2 10q0 13 38 163t40 163q1 5 1 23 0 39-24 39-38 0-63-100-6-20-6-21-2-6-19-6H27q-6 6-6 9z"/><path id="j" stroke-width="1" d="M56 237v13l14 20h299v150l1 150q10 13 19 13 13 0 20-15V270h298q15-8 15-20t-15-20H409V-68q-8-14-18-14h-4q-12 0-18 14v298H70q-14 7-14 20z"/><path id="k" stroke-width="1" d="M213 578l-13-5q-14-5-40-10t-58-7H83v46h19q47 2 87 15t56 24 28 22q2 3 12 3 9 0 17-6V361l1-300q7-7 12-9t24-4 62-2h26V0h-11q-21 3-159 3-136 0-157-3H88v46h64q16 0 25 1t16 3 8 2 6 5 6 4v517z"/><path id="l" stroke-width="1" d="M84 237v13l14 20h581q15-8 15-20t-15-20H98q-14 7-14 20z"/><path id="m" stroke-width="1" d="M56 347q0 13 14 20h637q15-8 15-20 0-11-14-19l-318-1H72q-16 5-16 20zm0-194q0 15 16 20h636q14-10 14-20 0-13-15-20H70q-14 7-14 20z"/><path id="n" stroke-width="1" d="M84 250q0 122 82 200t194 89h17q16 0 42 1t50 0h99q15-8 15-20 0-9-13-19l-104-1q-111-1-137-6-49-12-87-36t-59-49-36-55-18-48-5-34v-2h444q15-8 15-20t-15-20H124v-2q0-21 10-51t33-65 64-64 97-41q27-6 138-7h104q13-10 13-20 0-12-15-20H446q-18 0-29-1-155 0-245 86-88 82-88 205z"/><path id="o" stroke-width="1" d="M234 637h-8q-25 0-30 1t-5 11q0 27 11 33 2 1 97 1h88q11 0 14-6 211-496 215-509l54 213q53 211 53 225 0 27-64 31-24 0-24 11 0 2 2 12 4 16 6 19t10 4q3 0 31-1t83-2q50 0 76 1t30 1q15 0 15-10 0-22-8-30-2-5-22-5-71-4-89-40L620 7q-2-7-21-7-14 0-17 2-3 3-129 303L326 604l-65-260Q196 88 196 79q5-33 72-33h10q6-5 6-8t-2-19q-4-13-10-19h-13q-31 2-108 2H63Q49 2 46 1q-15 0-15 9 0 4 3 16t5 14q2 6 23 6 68 3 88 39 4 6 71 277l68 272q-2 1-55 3z"/><path id="p" stroke-width="1" d="M229 286q-13 134-13 150 0 18 24 28h5q4 0 6 1 12-1 22-9t10-20q0-17-6-80t-7-70l58 42q56 41 61 44t10 3q13 0 24-10t12-27q0-13-10-23-5-3-68-33t-68-32l66-31 70-35q9-9 9-23 0-15-9-25t-24-11q-8 0-18 6t-55 40l-58 42q13-134 13-150 0-10-7-19t-26-9q-19 0-26 9t-8 19q0 17 6 80t7 70l-58-42q-56-41-61-44-4-3-10-3-13 0-24 10t-12 27v8q0 3 3 6t5 6 9 7 13 7 19 9 25 11 32 15 40 20L74 315q-9 9-9 23 0 15 9 25t24 11q8 0 18-6t55-40l58-42z"/><path id="q" stroke-width="1" d="M230 637q-27 0-32 1t-5 11q0 27 11 33 2 1 174 1 172-1 186-3 56-8 94-28t54-46 21-43 6-34q0-45-29-84t-67-60-67-34-38-13l7-5q67-38 67-110 0-11-5-61t-5-82v-9q0-18 1-28t11-18 26-9q28 0 46 22t26 47q5 14 8 17t15 3q20 0 20-12 0-18-24-57-38-57-90-57h-9q-61 0-101 25t-44 78q0 27 15 84t15 73q0 51-43 74-15 7-25 8t-71 2h-69l-32-130Q244 61 244 59q0-4 1-5t7-4 17-2 33-2h31q6-8 6-9t-3-18q-4-13-10-19h-15q-36 2-131 2H71Q54 2 50 1q-17 0-17 9 0 2 3 14 5 19 10 21 4 1 15 1h6q27 0 60 3 14 3 19 12 3 4 72 278t69 289q0 7-57 9zm400-83q0 32-21 54t-86 28h-23q-21 0-38 1h-22q-47 0-54-10-1-3-34-133t-33-133q0-1 69-1 78 1 104 7 64 10 100 59 16 23 27 60t11 68z"/><path id="b" stroke-width="1" d="M184 600q0 24 19 42t44 19q18 0 30-12t13-30q0-23-20-42t-44-20q-15 0-28 10t-14 33zM21 287q0 8 9 31t24 51 44 51 60 22q39 0 65-23t27-62q0-17-14-56t-40-105-42-113q-5-22-5-32 0-25 17-25 9 0 19 3t23 14 27 35 25 59q3 12 5 14t17 2q20 0 20-10 0-8-9-31t-25-51-45-50-62-22q-32 0-59 21T74 74q0 17 5 32t43 114q38 101 44 121t7 39q0 24-17 24h-2q-30 0-55-33t-38-84q-1-1-2-3t-1-3-2-2-3-1-4 0-8 0H27q-6 6-6 9z"/><path id="g" stroke-width="1" d="M718-893l-6-6h-35l-11 6q-124 68-198 179t-83 238q-1 10-1 194 0 285 1 287l4 4q3 1 55 1 42 0 50-1t9-5q1-2 1-243v-127q0-104 4-147t22-96q16-48 39-89t48-69 44-45 38-31 18-13 1-20v-17z"/><path id="f" stroke-width="1" d="M389 1159q2 1 66 1 41 0 43-1 3-1 4-4 2-10 2-231 0-233-1-242-9-133-78-243T243 259l-14-9 14-9q106-66 178-175t82-248q1-9 1-242v-205q0-29-5-30h-1q-2-1-54-1t-54 1q-3 1-4 4-2 10-2 230v143q0 106-7 166T342 10q-17 44-41 82t-46 63-41 41-31 26-12 10q-1 1-1 18t1 18q0 1 20 16t49 47 60 76 54 117 29 155q1 12 1 246 0 227 1 230l4 4z"/><path id="e" stroke-width="1" d="M384 150v116q0 38 5 43 2 1 66 1 41 0 43-1 4-1 5-11 1-15 1-148V12q0-20-5-21h-1q-2-1-54-1t-54 1q-4 1-5 11-1 15-1 148z"/><path id="r" stroke-width="1" d="M118-250V750h137v-40h-97v-920h97v-40H118z"/><path id="s" stroke-width="1" d="M22 710v40h137V-250H22v40h97v920H22z"/><path id="u" stroke-width="1" d="M96 585q56 81 153 81 48 0 96-26t78-92q37-83 37-228 0-155-43-237-20-42-55-67t-61-31-51-7q-26 0-52 6t-61 32-55 67q-43 82-43 237 0 174 57 265zm225 12q-30 32-71 32-42 0-72-32-25-26-33-72t-8-192q0-158 8-208t36-79q28-30 69-30 40 0 68 30 29 30 36 84t8 203q0 145-8 191t-33 73z"/><path id="t" stroke-width="1" d="M247-949v2399h269v-62H309V-887h207v-62H247z"/><path id="v" stroke-width="1" d="M11 1388v62h269V-949H11v62h207v2275H11z"/><path id="w" stroke-width="1" d="M94 250q0 69 10 131t23 107 37 88 38 67 42 52 33 34 25 21h17q14 0 14-9 0-3-17-21t-41-53-49-86-42-138-17-193 17-192 41-139 49-86 42-53 17-21q0-9-15-9h-16l-28 24q-94 85-137 212T94 250z"/><path id="x" stroke-width="1" d="M60 749l4 1h22l28-24q94-85 137-212t43-264q0-68-10-131T261 12t-37-88-38-67-41-51-32-33-23-19l-4-4H63q-3 0-5 3t-3 9q1 1 11 13Q221-64 221 250T66 725q-10 12-11 13 0 8 5 11z"/><path id="y" stroke-width="1" d="M131 289q0 32 16 65t56 61 97 27q62 0 90-27t29-60q0-32-17-47t-38-16q-13 0-24 8t-12 26q0 16 9 28t17 18 13 6q1 0 1 1 0 3-7 9t-25 11-39 6q-48 0-70-26t-23-53q0-25 19-35t55-17 52-15q66-29 66-96 0-28-11-56t-33-56-63-44-94-17q-77 0-109 29T53 87q0 39 21 56t44 17q15 0 28-9t14-31q0-26-18-44t-31-18q-2-1-3-1t-1-2q1-3 8-8t31-13 55-7q36 0 62 11t38 28 17 31 5 25q0 28-21 42t-48 17-59 15-47 35q-17 25-17 58z"/><path id="z" stroke-width="1" d="M423 750q9 0 15-6t6-14q0-5-173-482T92-240q-7-10-17-10-7 0-13 5t-6 14q0 10 174 488t177 483q4 10 16 10z"/><path id="A" stroke-width="1" d="M109 429q-27 0-43 18t-16 44q0 71 53 123t132 52q91 0 152-56t62-145q0-43-20-82t-48-68-80-74q-36-31-100-92l-59-56 76-1q157 0 167 5 7 2 24 89v3h40v-3q-1-3-13-91T421 3V0H50v31q0 7 6 15t30 35q29 32 50 56 9 10 34 37t34 37 29 33 28 34 23 30 21 32 15 29 13 32 7 30 3 33q0 63-34 109t-97 46q-33 0-58-17t-35-33-10-19q0-1 5-1 18 0 37-14t19-46q0-25-16-42t-45-18z"/></defs><g fill="currentColor" stroke="currentColor" stroke-width="0"><g transform="matrix(1 0 0 -1 153 -8693)"><use xlink:href="#a"/><use x="523" xlink:href="#b"/><use x="869" xlink:href="#c"/><g transform="translate(1914 2154)"><use y="-900" xlink:href="#d"/><use transform="matrix(1 0 0 .56629 0 -1037.116)" xlink:href="#e"/><use y="-2155" xlink:href="#f"/><use transform="matrix(1 0 0 .56629 0 -2941.46)" xlink:href="#e"/><use y="-2909" xlink:href="#g"/></g><g transform="translate(2956 1354)"><use xlink:href="#h"/><g transform="matrix(.707 0 0 .707 529 -150)"><use xlink:href="#i"/><use x="600" xlink:href="#j"/><use x="1379" xlink:href="#k"/></g><use x="2180" xlink:href="#l"/><g transform="translate(3181)"><use xlink:href="#h"/><use x="748" y="-213" transform="scale(.707)" xlink:href="#i"/></g><use x="4513" xlink:href="#m"/><use x="5569" xlink:href="#a"/></g><g transform="translate(2956 -55)"><use xlink:href="#i"/><use x="878" xlink:href="#n"/><g transform="translate(1823)"><use xlink:href="#o"/><use x="1292" y="513" transform="scale(.707)" xlink:href="#p"/></g></g><g transform="translate(2956 -1455)"><use xlink:href="#a"/><use x="801" xlink:href="#n"/><g transform="translate(1746)"><use xlink:href="#q"/><use x="1074" y="513" transform="scale(.707)" xlink:href="#p"/></g></g></g><g transform="matrix(1 0 0 -1 153 -3788)"><use xlink:href="#h"/><use x="748" y="-213" transform="scale(.707)" xlink:href="#i"/><use x="1331" xlink:href="#m"/><g transform="translate(2388)"><use xlink:href="#r"/><g transform="translate(445)"><use x="-14" y="-50" xlink:href="#k"/><use x="1486" y="-50" xlink:href="#i"/></g><use x="2699" xlink:href="#s"/></g><g transform="translate(5532)"><use xlink:href="#t"/><g transform="translate(681)"><g transform="translate(0 650)"><use xlink:href="#h"/><use x="748" y="-213" transform="scale(.707)" xlink:href="#u"/></g><use x="229" y="-750" xlink:href="#a"/></g><use x="1831" y="-1" xlink:href="#v"/></g><use x="8171" xlink:href="#m"/><g transform="translate(9227)"><use xlink:href="#h"/><use x="748" y="-213" transform="scale(.707)" xlink:href="#u"/></g><use x="10433" xlink:href="#j"/><use x="11433" xlink:href="#a"/><use x="11957" xlink:href="#i"/><use x="12835" xlink:href="#m"/><g transform="translate(13891)"><use xlink:href="#h"/><use x="748" y="-213" transform="scale(.707)" xlink:href="#k"/></g><use x="15097" xlink:href="#j"/><use x="16098" xlink:href="#a"/><use x="16621" xlink:href="#w"/><use x="17011" xlink:href="#i"/><use x="17833" xlink:href="#l"/><use x="18834" xlink:href="#k"/><use x="19335" xlink:href="#x"/></g><g transform="matrix(1 0 0 -1 153 464)"><use xlink:href="#y"/><use x="663" y="-213" transform="scale(.707)" xlink:href="#i"/><use x="1271" xlink:href="#m"/><use x="2328" xlink:href="#i"/><g transform="translate(3095)"><use xlink:href="#r"/><g transform="translate(445)"><use x="-14" y="-50" xlink:href="#k"/><use x="1486" y="-50" xlink:href="#i"/></g><use x="2699" xlink:href="#s"/></g><g transform="translate(6240)"><use xlink:href="#t"/><g transform="translate(681)"><use y="701" xlink:href="#k"/><use y="-750" xlink:href="#u"/></g><g transform="translate(2181 701)"><use xlink:href="#k"/><use x="500" xlink:href="#z"/><use x="1001" xlink:href="#A"/></g><g transform="translate(2181 -750)"><use xlink:href="#k"/><use x="500" xlink:href="#z"/><use x="1001" xlink:href="#A"/></g><use x="3850" y="-1" xlink:href="#v"/></g><g transform="translate(10785)"><use xlink:href="#t"/><g transform="translate(681)"><g transform="translate(0 650)"><use xlink:href="#h"/><use x="748" y="-213" transform="scale(.707)" xlink:href="#u"/></g><use x="229" y="-750" xlink:href="#a"/></g><use x="1831" y="-1" xlink:href="#v"/></g></g><g transform="matrix(1 0 0 -1 153 4835)"><use xlink:href="#m"/><g transform="translate(1056)"><use xlink:href="#h"/><use x="748" y="-213" transform="scale(.707)" xlink:href="#u"/></g><use x="2039" xlink:href="#i"/><use x="2862" xlink:href="#j"/><path stroke="none" d="M3982 220h643v60h-643z"/><g transform="translate(4042 710)"><use xlink:href="#a"/></g><g transform="translate(4053 -771)"><use xlink:href="#A"/></g><use x="4746" xlink:href="#w"/><use x="5136" xlink:href="#i"/><use x="5958" xlink:href="#j"/><g transform="translate(6959)"><use xlink:href="#i"/><use x="849" y="513" transform="scale(.707)" xlink:href="#A"/></g><use x="8013" xlink:href="#x"/><use x="8681" xlink:href="#m"/><g><path stroke="none" d="M9856 220h7076v60H9856z"/><g transform="translate(9916 710)"><use xlink:href="#i"/><use x="600" xlink:href="#w"/><use x="990" xlink:href="#A"/><g transform="translate(1490)"><use xlink:href="#h"/><use x="748" y="-213" transform="scale(.707)" xlink:href="#u"/></g><use x="2696" xlink:href="#j"/><use x="3696" xlink:href="#a"/><use x="4442" xlink:href="#j"/><use x="5443" xlink:href="#a"/><use x="5966" xlink:href="#i"/><use x="6567" xlink:href="#x"/></g><g transform="translate(13144 -771)"><use xlink:href="#A"/></g></g></g><g transform="matrix(1 0 0 -1 153 9277)"><use xlink:href="#m"/><path stroke="none" d="M1175 220h4759v60H1175z"/><g transform="translate(1235 710)"><use xlink:href="#i"/><use x="600" xlink:href="#w"/><g transform="translate(990)"><use xlink:href="#h"/><use x="748" y="-213" transform="scale(.707)" xlink:href="#k"/></g><use x="2195" xlink:href="#j"/><g transform="translate(3196)"><use xlink:href="#h"/><use x="748" y="-213" transform="scale(.707)" xlink:href="#i"/></g><use x="4250" xlink:href="#x"/></g><g transform="translate(3304 -771)"><use xlink:href="#A"/></g><use x="6334" xlink:href="#m"/><use x="7390" xlink:href="#i"/><g transform="translate(7990)"><use xlink:href="#h"/><g transform="translate(649 -369)"><path stroke="none" d="M0 146h1059v60H0z"/><g transform="matrix(.5 0 0 .5 60 379)"><use xlink:href="#i"/><use x="600" xlink:href="#j"/><use x="1379" xlink:href="#k"/></g><use x="809" y="-636" transform="scale(.5)" xlink:href="#A"/></g></g></g></g></svg>